<svg xmlns="http://www.w3.org/2000/svg" viewBox="0 0 400 128">
  <g transform="translate(0 0)">
  <g stroke-linecap="round" stroke-linejoin="round">
    <!-- sticker border (reads on dark and light) -->
    <g transform="rotate(-16 62 70)" stroke="#f2efe8" stroke-width="15" fill="#f2efe8">
      <path d="M62 24 V11"/><circle cx="62" cy="9" r="6"/><circle cx="62" cy="70" r="46"/>
    </g>
    <g transform="rotate(-16 62 70)">
      <path d="M62 24 V11" stroke="#0d0e11" stroke-width="6"/>
      <circle cx="62" cy="9" r="6" fill="#e2412b" stroke="#0d0e11" stroke-width="4"/>
      <circle cx="62" cy="70" r="46" fill="#f5c400"/>
      <path d="M62 70 L62 24 A46 46 0 0 1 108 70 Z M62 70 L62 116 A46 46 0 0 1 16 70 Z" fill="#0d0e11"/>
      <circle cx="62" cy="70" r="46" fill="none" stroke="#0d0e11" stroke-width="7"/>
      <!-- closed eyes: dark on yellow, yellow on black -->
      <path d="M31 58 q9 9 19 0" fill="none" stroke="#0d0e11" stroke-width="6.5"/>
      <path d="M74 58 q9 9 19 0" fill="none" stroke="#f5c400" stroke-width="6.5"/>
      <!-- snoring mouth, off-centre because the head has slumped -->
      <ellipse cx="80" cy="90" rx="6.5" ry="8" fill="#0d0e11"/>
    </g>
    <!-- z z Z -->
    <g fill="none" stroke-width="5">
      <path d="M96 30 h9 l-9 10 h9" stroke="#f2efe8" stroke-width="11"/><path d="M96 30 h9 l-9 10 h9" stroke="#0d0e11"/>
      <path d="M108 12 h13 l-13 14 h13" stroke="#f2efe8" stroke-width="11"/><path d="M108 12 h13 l-13 14 h13" stroke="#0d0e11"/>
    </g>
  </g>
</g>
  <g fill="none" stroke="#0d0e11" stroke-width="16" stroke-linejoin="miter" stroke-linecap="butt">
    <path d="M146 102 V30 L184 102 V30"/>
    <path d="M268 102 L292 28 L316 102"/>
    <path d="M276 78 H308" stroke-width="12"/>
    <path d="M338 102 V30 H358 A19 19 0 0 1 358 68 H338"/>
  </g>
  <!-- the lowercase a is a tiny dozing roundel -->
  <g stroke-linejoin="round" stroke-linecap="round">
    <circle cx="222" cy="78" r="23" fill="#f5c400"/>
    <path d="M222 78 L222 55 A23 23 0 0 1 245 78 Z M222 78 L222 101 A23 23 0 0 1 199 78 Z" fill="#0d0e11"/>
    <circle cx="222" cy="78" r="23" fill="none" stroke="#0d0e11" stroke-width="6"/>
    <path d="M207 73 q4 4 8 0" fill="none" stroke="#0d0e11" stroke-width="3.5"/>
    <path d="M228 73 q4 4 8 0" fill="none" stroke="#f5c400" stroke-width="3.5"/>
    <path d="M251 56 V102" stroke="#0d0e11" stroke-width="14" stroke-linecap="butt"/>
  </g>
</svg>
